<svg xmlns="http://www.w3.org/2000/svg" width="1440" height="900" viewBox="0 0 1440 900">
  <rect width="1440" height="900" fill="#f4f7fa"/>
  <rect width="1440" height="64" fill="#fff" stroke="#d6dde5"/>
  <rect x="24" y="17" width="30" height="30" rx="6" fill="#147d7e"/>
  <text x="64" y="31" font-family="Arial" font-size="15" font-weight="700" fill="#142033">Deutschland-Simulator</text>
  <text x="64" y="47" font-family="Arial" font-size="10" fill="#5f6b78">Rechtsstand 2026 · Datenstand 2025 · DEMO</text>
  <rect x="315" y="16" width="90" height="32" rx="6" fill="#e1efef"/><text x="334" y="36" font-family="Arial" font-size="13" font-weight="700" fill="#147d7e">Dashboard</text>
  <text x="427" y="36" font-family="Arial" font-size="13" fill="#5f6b78">Einkommensteuer</text><text x="550" y="36" font-family="Arial" font-size="13" fill="#5f6b78">Vergleich</text>
  <rect x="1090" y="16" width="150" height="32" rx="6" fill="#fff" stroke="#d6dde5"/><text x="1103" y="36" font-family="Arial" font-size="12" fill="#142033">Reformentwurf A</text>
  <rect x="1250" y="16" width="82" height="32" rx="6" fill="#fff" stroke="#d6dde5"/><text x="1266" y="36" font-family="Arial" font-size="12" fill="#142033">Speichern</text>
  <rect x="1340" y="16" width="76" height="32" rx="6" fill="#147d7e"/><text x="1358" y="36" font-family="Arial" font-size="12" font-weight="700" fill="#fff">Teilen</text>
  <g font-family="Arial">
    <rect x="24" y="76" width="338" height="89" rx="8" fill="#fff" stroke="#d6dde5"/><text x="40" y="99" font-size="10" font-weight="700" fill="#5f6b78">EINNAHMEN</text><text x="40" y="130" font-size="21" font-weight="700" fill="#142033">1.566,7 Mrd. €</text><text x="220" y="130" font-size="11" font-weight="700" fill="#a33b3b">−7,2 Mrd. €</text>
    <rect x="372" y="76" width="338" height="89" rx="8" fill="#fff" stroke="#d6dde5"/><text x="388" y="99" font-size="10" font-weight="700" fill="#5f6b78">AUSGABEN</text><text x="388" y="130" font-size="21" font-weight="700" fill="#142033">830,5 Mrd. €</text>
    <rect x="720" y="76" width="338" height="89" rx="8" fill="#fff" stroke="#d6dde5"/><text x="736" y="99" font-size="10" font-weight="700" fill="#5f6b78">SALDO</text><text x="736" y="130" font-size="21" font-weight="700" fill="#142033">736,2 Mrd. €</text>
    <rect x="1068" y="76" width="348" height="89" rx="8" fill="#fff" stroke="#d6dde5"/><text x="1084" y="99" font-size="10" font-weight="700" fill="#5f6b78">SCHULDENSTAND</text><text x="1084" y="130" font-size="21" font-weight="700" fill="#142033">2.634,0 Mrd. €</text>
  </g>
  <rect x="24" y="181" width="280" height="693" rx="8" fill="#fff" stroke="#d6dde5"/>
  <rect x="318" y="181" width="754" height="510" rx="8" fill="#fff" stroke="#d6dde5"/>
  <rect x="1086" y="181" width="330" height="693" rx="8" fill="#fff" stroke="#d6dde5"/>
  <text x="40" y="207" font-family="Arial" font-size="10" font-weight="700" fill="#5f6b78">EINNAHMEN</text><text x="40" y="234" font-family="Arial" font-size="19" font-weight="700" fill="#142033">1.566,7 Mrd. €</text>
  <text x="1102" y="207" font-family="Arial" font-size="10" font-weight="700" fill="#5f6b78">AUSGABEN</text><text x="1102" y="234" font-family="Arial" font-size="19" font-weight="700" fill="#142033">830,5 Mrd. €</text>
  <g font-family="Arial" font-size="11" fill="#142033">
    <rect x="40" y="257" width="28" height="28" rx="6" fill="#e1efef" stroke="#d6dde5"/><text x="78" y="270" font-weight="700">Einkommensteuer</text><text x="78" y="287" font-size="9" fill="#5f6b78">358,2 → 351,0 Mrd. €</text><text x="255" y="273" fill="#a33b3b">−7,2</text>
    <rect x="40" y="317" width="28" height="28" rx="6" fill="#e1efef" stroke="#d6dde5"/><text x="78" y="330" font-weight="700">Umsatzsteuer</text><text x="78" y="347" font-size="9" fill="#5f6b78">291,4 Mrd. €</text>
    <rect x="40" y="377" width="28" height="28" rx="6" fill="#e1efef" stroke="#d6dde5"/><text x="78" y="390" font-weight="700">Körperschaftsteuer</text><text x="78" y="407" font-size="9" fill="#5f6b78">46,1 Mrd. €</text>
    <rect x="40" y="437" width="28" height="28" rx="6" fill="#e1efef" stroke="#d6dde5"/><text x="78" y="450" font-weight="700">Sozialbeiträge</text><text x="78" y="467" font-size="9" fill="#5f6b78">620,0 Mrd. €</text>
    <rect x="1102" y="257" width="28" height="28" rx="6" fill="#eef2f6" stroke="#d6dde5"/><text x="1140" y="270" font-weight="700">Rente</text><text x="1140" y="287" font-size="9" fill="#5f6b78">128,4 Mrd. €</text>
    <rect x="1102" y="317" width="28" height="28" rx="6" fill="#eef2f6" stroke="#d6dde5"/><text x="1140" y="330" font-weight="700">Gesundheit</text><text x="1140" y="347" font-size="9" fill="#5f6b78">92,1 Mrd. €</text>
    <rect x="1102" y="377" width="28" height="28" rx="6" fill="#eef2f6" stroke="#d6dde5"/><text x="1140" y="390" font-weight="700">Kitas</text><text x="1140" y="407" font-size="9" fill="#5f6b78">8,4 Mrd. €</text>
    <rect x="1102" y="437" width="28" height="28" rx="6" fill="#eef2f6" stroke="#d6dde5"/><text x="1140" y="450" font-weight="700">Verteidigung</text><text x="1140" y="467" font-size="9" fill="#5f6b78">71,8 Mrd. €</text>
  </g>
  <rect x="326" y="189" width="74" height="31" rx="6" fill="#e1efef"/><text x="344" y="209" font-family="Arial" font-size="12" font-weight="700" fill="#147d7e">Budget</text><text x="420" y="209" font-family="Arial" font-size="12" fill="#5f6b78">Haushalte</text><text x="496" y="209" font-family="Arial" font-size="12" fill="#5f6b78">Verteilung</text><text x="572" y="209" font-family="Arial" font-size="12" fill="#5f6b78">Regionen</text><text x="639" y="209" font-family="Arial" font-size="12" fill="#5f6b78">Zeitverlauf</text>
  <text x="338" y="253" font-family="Arial" font-size="13" font-weight="700" fill="#142033">Wasserfall Budgetsaldo</text><text x="338" y="272" font-family="Arial" font-size="10" fill="#5f6b78">Veränderung gegenüber Status quo · Bandbreite ± 25 %</text>
  <g font-family="Arial" text-anchor="middle"><rect x="380" y="390" width="90" height="145" fill="#142033"/><text x="425" y="378" font-size="10" fill="#142033">−39,0</text><text x="425" y="558" font-size="9" fill="#5f6b78">Saldo Status quo</text><rect x="535" y="455" width="90" height="80" fill="#a33b3b"/><text x="580" y="443" font-size="10" fill="#142033">−7,2</text><text x="580" y="558" font-size="9" fill="#5f6b78">Einkommensteuer</text><rect x="690" y="370" width="90" height="165" fill="#142033"/><text x="735" y="358" font-size="10" fill="#142033">−46,2</text><text x="735" y="558" font-size="9" fill="#5f6b78">Saldo Reform</text></g>
  <rect x="830" y="246" width="222" height="335" rx="6" fill="#fff" stroke="#d6dde5"/><text x="846" y="271" font-family="Arial" font-size="12" font-weight="700" fill="#142033">Sankey · Mittelfluss</text><rect x="846" y="294" width="190" height="22" rx="3" fill="#147d7e"/><rect x="910" y="294" width="54" height="22" fill="#3b6ea8"/><rect x="964" y="294" width="50" height="22" fill="#7a5195"/><rect x="1014" y="294" width="22" height="22" rx="3" fill="#b36b00"/><rect x="846" y="370" width="190" height="11" rx="3" fill="#d6dde5"/><rect x="846" y="423" width="190" height="22" rx="3" fill="#7a5195"/><rect x="917" y="423" width="51" height="22" fill="#3b6ea8"/><rect x="968" y="423" width="25" height="22" fill="#4a7a52"/><rect x="993" y="423" width="43" height="22" rx="3" fill="#8a6a3a"/>
  <rect x="318" y="705" width="754" height="169" rx="8" fill="#fff" stroke="#d6dde5"/><text x="334" y="731" font-family="Arial" font-size="10" font-weight="700" fill="#5f6b78">MIGRATION UND ASYL · GETRENNTE TEILBEREICHE</text><text x="334" y="755" font-family="Arial" font-size="12" fill="#142033">Unterbringung, Verfahren, Integration, Bildung und Erwerbstätigkeit getrennt dargestellt</text><rect x="334" y="780" width="170" height="65" rx="6" fill="#eef2f6" stroke="#d6dde5"/><text x="350" y="807" font-family="Arial" font-size="16" font-weight="700" fill="#142033">9,8</text><text x="350" y="827" font-family="Arial" font-size="10" fill="#5f6b78">Unterbringung</text><rect x="514" y="780" width="170" height="65" rx="6" fill="#eef2f6" stroke="#d6dde5"/><text x="530" y="807" font-family="Arial" font-size="16" font-weight="700" fill="#142033">5,1</text><text x="530" y="827" font-family="Arial" font-size="10" fill="#5f6b78">Verfahren</text><rect x="694" y="780" width="170" height="65" rx="6" fill="#eef2f6" stroke="#d6dde5"/><text x="710" y="807" font-family="Arial" font-size="16" font-weight="700" fill="#142033">4,4</text><text x="710" y="827" font-family="Arial" font-size="10" fill="#5f6b78">Integration</text><rect x="874" y="780" width="170" height="65" rx="6" fill="#eef2f6" stroke="#d6dde5"/><text x="890" y="807" font-family="Arial" font-size="16" font-weight="700" fill="#142033">10,5</text><text x="890" y="827" font-family="Arial" font-size="10" fill="#5f6b78">weitere Bereiche</text>
</svg>
