<svg xmlns="http://www.w3.org/2000/svg" width="1440" height="900" viewBox="0 0 1440 900" role="img" aria-labelledby="title desc">
  <title id="title">Milestone 7 – synthetische Bevölkerung</title>
  <desc id="desc">Versionierte Vorschau der Bevölkerungsübersicht mit aktivem Lauf, Generator, Verteilungen und Kalibrierungsbericht.</desc>
  <rect width="1440" height="900" fill="#f4f7fa"/>
  <rect width="1440" height="72" fill="#fff" stroke="#dce3e9"/>
  <g font-family="Arial, sans-serif">
    <text x="48" y="34" font-size="20" font-weight="700" fill="#17212b">HaushaltsKompass</text>
    <text x="48" y="53" font-size="11" fill="#62717d">Rechtsstand 2026 · Datenstand 2025 · MODELL</text>
    <text x="470" y="42" font-size="12" font-weight="700" fill="#087f83">Bevölkerung</text>
    <text x="64" y="118" font-size="12" font-weight="700" fill="#087f83">MILESTONE 7 · VOLLSTÄNDIG SYNTHETISCHE DATENBASIS</text>
    <text x="64" y="158" font-size="36" font-weight="700" fill="#17212b">Bevölkerung</text>
    <text x="64" y="184" font-size="14" fill="#62717d">Deterministisch erzeugte und gewichtete Personen und Haushalte für gemeinsame Simulationen.</text>
  </g>
  <rect x="64" y="218" width="878" height="245" rx="8" fill="#fff" stroke="#dce3e9"/>
  <rect x="958" y="218" width="418" height="245" rx="8" fill="#fff" stroke="#dce3e9"/>
  <g font-family="Arial, sans-serif">
    <text x="88" y="252" font-size="18" font-weight="700" fill="#17212b">Aktiver Lauf</text>
    <text x="88" y="273" font-size="11" fill="#62717d">population-7ac319e</text>
    <rect x="790" y="238" width="128" height="26" rx="13" fill="#e8f7f1"/>
    <text x="808" y="256" font-size="10" font-weight="700" fill="#1b7f5a">✓ innerhalb Toleranz</text>
  </g>
  <g font-family="Arial, sans-serif">
    <g transform="translate(88 296)"><rect width="252" height="62" rx="6" fill="#f6f8fa" stroke="#e3e8ec"/><text x="12" y="19" font-size="10" fill="#62717d">Synthetische Personen</text><text x="12" y="43" font-size="20" font-weight="700" fill="#17212b">10.000</text></g>
    <g transform="translate(352 296)"><rect width="252" height="62" rx="6" fill="#f6f8fa" stroke="#e3e8ec"/><text x="12" y="19" font-size="10" fill="#62717d">Synthetische Haushalte</text><text x="12" y="43" font-size="20" font-weight="700" fill="#17212b">5.862</text></g>
    <g transform="translate(616 296)"><rect width="252" height="62" rx="6" fill="#f6f8fa" stroke="#e3e8ec"/><text x="12" y="19" font-size="10" fill="#62717d">Gewichtete Bevölkerung</text><text x="12" y="43" font-size="20" font-weight="700" fill="#17212b">83,5 Mio.</text></g>
    <g transform="translate(88 370)"><rect width="252" height="62" rx="6" fill="#f6f8fa" stroke="#e3e8ec"/><text x="12" y="19" font-size="10" fill="#62717d">Gewichtete Haushalte</text><text x="12" y="43" font-size="20" font-weight="700" fill="#17212b">41,3 Mio.</text></g>
    <g transform="translate(352 370)"><rect width="252" height="62" rx="6" fill="#f6f8fa" stroke="#e3e8ec"/><text x="12" y="19" font-size="10" fill="#62717d">Datenstand</text><text x="12" y="43" font-size="20" font-weight="700" fill="#17212b">2024</text></g>
    <g transform="translate(616 370)"><rect width="252" height="62" rx="6" fill="#f6f8fa" stroke="#e3e8ec"/><text x="12" y="19" font-size="10" fill="#62717d">Seed</text><text x="12" y="43" font-size="16" font-weight="700" fill="#17212b">de-sim-2025</text></g>
  </g>
  <g font-family="Arial, sans-serif">
    <text x="982" y="252" font-size="18" font-weight="700" fill="#17212b">Bevölkerung erzeugen</text>
    <text x="982" y="273" font-size="11" fill="#62717d">Reproduzierbar mit explizitem Seed</text>
    <text x="982" y="310" font-size="10" font-weight="700" fill="#52616d">SEED</text><rect x="982" y="320" width="370" height="34" rx="5" fill="#fff" stroke="#cfd8df"/><text x="994" y="342" font-size="12" fill="#17212b">de-sim-2025</text>
    <text x="982" y="376" font-size="10" font-weight="700" fill="#52616d">STICHPROBENGRÖSSE</text><rect x="982" y="386" width="370" height="34" rx="5" fill="#fff" stroke="#cfd8df"/><text x="994" y="408" font-size="12" fill="#17212b">10.000 Personen · Standard</text>
    <rect x="982" y="432" width="370" height="34" rx="5" fill="#087f83"/><text x="1092" y="454" font-size="12" font-weight="700" fill="#fff">↻ Neu erzeugen</text>
  </g>
  <rect x="64" y="481" width="1312" height="185" rx="8" fill="#fff" stroke="#dce3e9"/>
  <g font-family="Arial, sans-serif">
    <text x="88" y="515" font-size="18" font-weight="700" fill="#17212b">Gewichtete Verteilungen</text>
    <rect x="88" y="535" width="70" height="28" rx="5" fill="#dff2f2"/><text x="107" y="553" font-size="11" font-weight="700" fill="#087f83">Alter</text>
    <text x="88" y="591" font-size="11" fill="#52616d">0–17</text><rect x="180" y="581" width="900" height="10" rx="5" fill="#edf1f4"/><rect x="180" y="581" width="166" height="10" rx="5" fill="#087f83"/><text x="1100" y="591" font-size="11" fill="#52616d">18,4 %</text>
    <text x="88" y="620" font-size="11" fill="#52616d">45–64</text><rect x="180" y="610" width="900" height="10" rx="5" fill="#edf1f4"/><rect x="180" y="610" width="248" height="10" rx="5" fill="#087f83"/><text x="1100" y="620" font-size="11" fill="#52616d">27,6 %</text>
    <text x="88" y="649" font-size="11" fill="#52616d">65–79</text><rect x="180" y="639" width="900" height="10" rx="5" fill="#edf1f4"/><rect x="180" y="639" width="139" height="10" rx="5" fill="#087f83"/><text x="1100" y="649" font-size="11" fill="#52616d">15,4 %</text>
  </g>
  <rect x="64" y="684" width="956" height="168" rx="8" fill="#fff" stroke="#dce3e9"/>
  <rect x="1036" y="684" width="340" height="168" rx="8" fill="#fff" stroke="#dce3e9"/>
  <g font-family="Arial, sans-serif">
    <text x="88" y="718" font-size="18" font-weight="700" fill="#17212b">Kalibrierungsbericht</text>
    <rect x="88" y="737" width="908" height="26" fill="#f4f7fa"/>
    <text x="98" y="754" font-size="10" fill="#62717d">DIMENSION</text><text x="290" y="754" font-size="10" fill="#62717d">KATEGORIE</text><text x="500" y="754" font-size="10" fill="#62717d">ZIEL</text><text x="600" y="754" font-size="10" fill="#62717d">MODELL</text><text x="700" y="754" font-size="10" fill="#62717d">ABWEICHUNG</text><text x="850" y="754" font-size="10" fill="#62717d">STATUS</text>
    <text x="98" y="786" font-size="10" fill="#17212b">Altersgruppen</text><text x="290" y="786" font-size="10" fill="#17212b">45–64</text><text x="500" y="786" font-size="10" fill="#17212b">27,6 %</text><text x="600" y="786" font-size="10" fill="#17212b">27,6 %</text><text x="700" y="786" font-size="10" fill="#17212b">±0,00 %</text><text x="850" y="786" font-size="10" fill="#1b7f5a">✓ innerhalb Toleranz</text>
    <text x="98" y="819" font-size="10" fill="#17212b">Haushaltstyp</text><text x="290" y="819" font-size="10" fill="#17212b">Paar mit Kindern</text><text x="500" y="819" font-size="10" fill="#17212b">16,6 %</text><text x="600" y="819" font-size="10" fill="#17212b">16,6 %</text><text x="700" y="819" font-size="10" fill="#17212b">±0,00 %</text><text x="850" y="819" font-size="10" fill="#1b7f5a">✓ innerhalb Toleranz</text>
    <text x="1060" y="718" font-size="18" font-weight="700" fill="#17212b">Gespeicherte Läufe</text>
    <rect x="1060" y="740" width="292" height="78" rx="6" fill="#f8fbfb" stroke="#087f83"/><rect x="1060" y="740" width="3" height="78" fill="#087f83"/>
    <text x="1074" y="765" font-size="12" font-weight="700" fill="#17212b">de-sim-2025</text><text x="1074" y="784" font-size="10" fill="#62717d">10.000 Personen · aktiv</text><text x="1074" y="802" font-size="9" fill="#62717d">population-7ac319e</text>
  </g>
</svg>
