<svg xmlns="http://www.w3.org/2000/svg" width="1440" height="900" viewBox="0 0 1440 900">
  <rect width="1440" height="900" fill="#f4f7fa"/>
  <rect width="1440" height="64" fill="#ffffff" stroke="#d6dde5"/>
  <rect x="32" y="17" width="29" height="29" rx="6" fill="#147d7e"/>
  <text x="72" y="31" font-family="Arial,sans-serif" font-size="15" font-weight="700" fill="#142033">Deutschland-Simulator</text>
  <text x="72" y="46" font-family="Arial,sans-serif" font-size="10" fill="#5f6b78">Rechtsstand 2026 · Datenstand 2025</text>
  <text x="330" y="38" font-family="Arial,sans-serif" font-size="13" fill="#147d7e">Einkommensteuer</text>

  <text x="32" y="100" font-family="Arial,sans-serif" font-size="11" fill="#5f6b78">Dashboard  ›  Einkommensteuer</text>
  <rect x="32" y="122" width="252" height="24" rx="4" fill="#e1efef" stroke="#d6dde5"/>
  <text x="44" y="138" font-family="Arial,sans-serif" font-size="10" font-weight="700" fill="#147d7e">GESETZLICHE BASELINE 2026 · § 32A ESTG</text>
  <text x="32" y="184" font-family="Arial,sans-serif" font-size="30" font-weight="700" fill="#142033">Einkommensteuer</text>
  <text x="32" y="210" font-family="Arial,sans-serif" font-size="13" fill="#5f6b78">Gesetzlichen Tarif 2026 mit einem transparenten Reformszenario vergleichen.</text>

  <rect x="32" y="236" width="1376" height="68" rx="8" fill="#ffffff" stroke="#d6dde5"/>
  <g font-family="Arial,sans-serif">
    <text x="52" y="257" font-size="9" font-weight="700" fill="#5f6b78">GRUNDFREIBETRAG</text><text x="52" y="281" font-size="16" font-weight="700" fill="#142033">12.348 €</text>
    <text x="300" y="257" font-size="9" font-weight="700" fill="#5f6b78">BEGINN 42 %</text><text x="300" y="281" font-size="16" font-weight="700" fill="#142033">69.879 €</text>
    <text x="548" y="257" font-size="9" font-weight="700" fill="#5f6b78">BEGINN 45 %</text><text x="548" y="281" font-size="16" font-weight="700" fill="#142033">277.826 €</text>
    <text x="796" y="257" font-size="9" font-weight="700" fill="#5f6b78">RUNDUNG</text><text x="796" y="281" font-size="16" font-weight="700" fill="#142033">volle Euro</text>
  </g>

  <rect x="32" y="320" width="340" height="540" rx="8" fill="#ffffff" stroke="#d6dde5"/>
  <text x="50" y="350" font-family="Arial,sans-serif" font-size="14" font-weight="700" fill="#142033">Reformparameter</text>
  <g font-family="Arial,sans-serif" font-size="11" fill="#142033">
    <text x="50" y="392">Grundfreibetrag</text><rect x="50" y="405" width="286" height="5" rx="2" fill="#d6dde5"/><rect x="50" y="405" width="190" height="5" rx="2" fill="#147d7e"/><text x="272" y="394" fill="#147d7e">13.500 €</text>
    <text x="50" y="454">Eingangssteuersatz</text><rect x="50" y="467" width="286" height="5" rx="2" fill="#d6dde5"/><rect x="50" y="467" width="120" height="5" rx="2" fill="#147d7e"/><text x="298" y="456" fill="#147d7e">12 %</text>
    <text x="50" y="516">Spitzensteuersatz</text><rect x="50" y="529" width="286" height="5" rx="2" fill="#d6dde5"/><rect x="50" y="529" width="168" height="5" rx="2" fill="#147d7e"/><text x="298" y="518" fill="#147d7e">42 %</text>
    <text x="50" y="578">Schwelle Spitzensteuersatz</text><rect x="50" y="591" width="286" height="5" rx="2" fill="#d6dde5"/><rect x="50" y="591" width="145" height="5" rx="2" fill="#147d7e"/><text x="276" y="580" fill="#147d7e">75.000 €</text>
    <text x="50" y="640">Reichensteuersatz</text><rect x="50" y="653" width="286" height="5" rx="2" fill="#d6dde5"/><rect x="50" y="653" width="188" height="5" rx="2" fill="#147d7e"/><text x="298" y="642" fill="#147d7e">45 %</text>
    <text x="50" y="702">Kinderfreibetrag</text><rect x="50" y="715" width="286" height="5" rx="2" fill="#d6dde5"/><rect x="50" y="715" width="182" height="5" rx="2" fill="#147d7e"/><text x="278" y="704" fill="#147d7e">9.756 €</text>
  </g>

  <rect x="388" y="320" width="1020" height="185" rx="8" fill="#ffffff" stroke="#d6dde5"/>
  <text x="408" y="350" font-family="Arial,sans-serif" font-size="14" font-weight="700" fill="#142033">Modellstufe · mit Verhaltenseffekt</text>
  <g font-family="Arial,sans-serif">
    <rect x="408" y="375" width="225" height="104" rx="6" fill="#ffffff" stroke="#d6dde5"/><text x="423" y="397" font-size="9" fill="#5f6b78">STEUERAUFKOMMEN</text><text x="423" y="430" font-size="20" font-weight="700" fill="#142033">346,8 Mrd. €</text><text x="423" y="455" font-size="11" font-weight="700" fill="#a33b3b">−11,4 Mrd. €</text>
    <rect x="646" y="375" width="225" height="104" rx="6" fill="#ffffff" stroke="#d6dde5"/><text x="661" y="397" font-size="9" fill="#5f6b78">GEWINNER</text><text x="661" y="430" font-size="20" font-weight="700" fill="#142033">25,2 Mio.</text><text x="661" y="455" font-size="11" font-weight="700" fill="#18704d">Steuerfälle</text>
    <rect x="884" y="375" width="225" height="104" rx="6" fill="#ffffff" stroke="#d6dde5"/><text x="899" y="397" font-size="9" fill="#5f6b78">VERLIERER</text><text x="899" y="430" font-size="20" font-weight="700" fill="#142033">8,4 Mio.</text><text x="899" y="455" font-size="11" font-weight="700" fill="#a33b3b">Steuerfälle</text>
    <rect x="1122" y="375" width="266" height="104" rx="6" fill="#ffffff" stroke="#d6dde5"/><text x="1137" y="397" font-size="9" fill="#5f6b78">MEDIAN-WIRKUNG</text><text x="1137" y="430" font-size="20" font-weight="700" fill="#142033">+18 € / Monat</text><text x="1137" y="455" font-size="11" font-weight="700" fill="#18704d">gewichteter Median</text>
  </g>

  <rect x="388" y="521" width="1020" height="162" rx="8" fill="#ffffff" stroke="#d6dde5"/>
  <text x="410" y="552" font-family="Arial,sans-serif" font-size="14" font-weight="700" fill="#142033">Tarifprüfung 2026</text>
  <text x="410" y="574" font-family="Arial,sans-serif" font-size="10" fill="#5f6b78">Zu versteuerndes Einkommen: 30.000 € · alleinstehend</text>
  <g font-family="Arial,sans-serif">
    <text x="410" y="610" font-size="9" fill="#5f6b78">GESETZ 2026</text><text x="410" y="644" font-size="22" font-weight="700" fill="#142033">4.217 €</text>
    <text x="700" y="610" font-size="9" fill="#5f6b78">REFORMSZENARIO</text><text x="700" y="644" font-size="22" font-weight="700" fill="#142033">3.348 €</text>
    <rect x="1020" y="586" width="350" height="76" rx="6" fill="#e1efef"/><text x="1038" y="610" font-size="9" fill="#5f6b78">VERFÜGBARES EINKOMMEN</text><text x="1038" y="644" font-size="22" font-weight="700" fill="#18704d">+869 € / Jahr</text>
  </g>

  <rect x="388" y="699" width="1020" height="161" rx="8" fill="#ffffff" stroke="#d6dde5"/>
  <text x="410" y="730" font-family="Arial,sans-serif" font-size="14" font-weight="700" fill="#142033">Tarifkurve</text>
  <line x1="430" y1="829" x2="1370" y2="829" stroke="#b9c3ce"/>
  <line x1="430" y1="755" x2="430" y2="829" stroke="#b9c3ce"/>
  <path d="M430 829 L470 829 L520 807 L610 780 L760 767 L1240 767 L1370 762" fill="none" stroke="#5f6b78" stroke-width="2" stroke-dasharray="6 5"/>
  <path d="M430 829 L480 829 L540 811 L640 786 L820 767 L1240 767 L1370 762" fill="none" stroke="#147d7e" stroke-width="3"/>
</svg>
