<svg xmlns="http://www.w3.org/2000/svg" width="1440" height="900" viewBox="0 0 1440 900">
  <rect width="1440" height="900" fill="#f4f7fa"/>
  <rect width="1440" height="64" fill="#fff" stroke="#d6dde5"/>
  <rect x="32" y="17" width="29" height="29" rx="6" fill="#147d7e"/>
  <text x="72" y="31" font-family="Arial,sans-serif" font-size="15" font-weight="700" fill="#142033">Deutschland-Simulator</text>
  <text x="72" y="46" font-family="Arial,sans-serif" font-size="10" fill="#5f6b78">Rechtsstand 2026 · Datenstand 2025</text>
  <text x="580" y="38" font-family="Arial,sans-serif" font-size="13" fill="#7a4e9d">Ausgaben</text>
  <text x="32" y="105" font-family="Arial,sans-serif" font-size="11" fill="#5f6b78">Dashboard › Ausgaben und Leistungen</text>
  <text x="32" y="150" font-family="Arial,sans-serif" font-size="30" font-weight="700" fill="#142033">Ausgaben und Leistungen</text>
  <text x="32" y="177" font-family="Arial,sans-serif" font-size="13" fill="#5f6b78">Teilaggregate, direkte Wirkung, Folgewirkung und Unsicherheit getrennt simulieren.</text>
  <rect x="32" y="205" width="290" height="650" rx="8" fill="#fff" stroke="#d6dde5"/>
  <text x="50" y="237" font-family="Arial,sans-serif" font-size="14" font-weight="700" fill="#142033">Module</text>
  <g font-family="Arial,sans-serif" font-size="11" fill="#142033">
    <rect x="32" y="255" width="290" height="62" fill="#f4edf9"/><rect x="32" y="255" width="3" height="62" fill="#7a4e9d"/><text x="50" y="279" font-weight="700">Bürgergeld und Unterkunft</text><text x="50" y="299" fill="#5f6b78">Regelbedarf · Fälle · Unterkunft</text>
    <text x="50" y="350" font-weight="700">Rente</text><text x="50" y="369" fill="#5f6b78">Rentenwert · Demografie</text>
    <text x="50" y="420" font-weight="700">Bildung und Schulen</text><text x="50" y="439" fill="#5f6b78">Lernende · Investitionen</text>
    <text x="50" y="490" font-weight="700">Kitas und Familienleistungen</text><text x="50" y="509" fill="#5f6b78">Transfers · Plätze · Qualität</text>
    <text x="50" y="560" font-weight="700">Gesundheit und Pflege</text><text x="50" y="579" fill="#5f6b78">Leistungen · Vergütung · Pflegefälle</text>
    <text x="50" y="630" font-weight="700">Verteidigung</text><text x="50" y="649" fill="#5f6b78">Personal · Beschaffung · Betrieb</text>
    <text x="50" y="700" font-weight="700">Infrastruktur</text><text x="50" y="719" fill="#5f6b78">Neubau · Erhalt · Mittelabfluss</text>
    <text x="50" y="770" font-weight="700">Subventionen · Migration</text><text x="50" y="789" fill="#5f6b78">getrennte Nachweise und Teilaggregate</text>
  </g>
  <rect x="340" y="205" width="1068" height="174" rx="8" fill="#fff" stroke="#d6dde5"/>
  <text x="362" y="235" font-family="Arial,sans-serif" font-size="10" font-weight="700" fill="#7a4e9d">BÜRGERGELD UND UNTERKUNFT · SGB II</text>
  <text x="362" y="270" font-family="Arial,sans-serif" font-size="25" font-weight="700" fill="#142033">Bürgergeld und Unterkunft</text>
  <text x="362" y="293" font-family="Arial,sans-serif" font-size="12" fill="#5f6b78">Regelbedarfe, Bedarfsgemeinschaften, Unterkunft und Verwaltung getrennt parametrisieren.</text>
  <g font-family="Arial,sans-serif">
    <rect x="362" y="315" width="235" height="48" rx="6" fill="#f8fafb" stroke="#d6dde5"/><text x="375" y="334" font-size="9" fill="#5f6b78">BASELINE</text><text x="375" y="354" font-size="16" font-weight="700" fill="#142033">53,8 Mrd. €</text>
    <rect x="610" y="315" width="235" height="48" rx="6" fill="#f8fafb" stroke="#d6dde5"/><text x="623" y="334" font-size="9" fill="#5f6b78">SZENARIO</text><text x="623" y="354" font-size="16" font-weight="700" fill="#142033">55,4 Mrd. €</text>
    <rect x="858" y="315" width="235" height="48" rx="6" fill="#f8fafb" stroke="#d6dde5"/><text x="871" y="334" font-size="9" fill="#5f6b78">DIREKTE WIRKUNG</text><text x="871" y="354" font-size="16" font-weight="700" fill="#a33b3b">+1,9 Mrd. €</text>
    <rect x="1106" y="315" width="280" height="48" rx="6" fill="#fff4d8"/><text x="1119" y="334" font-size="9" fill="#73570f">FOLGEWIRKUNG &amp; BAND</text><text x="1119" y="354" font-size="16" font-weight="700" fill="#73570f">−0,3 · ±20 %</text>
  </g>
  <rect x="340" y="397" width="670" height="458" rx="8" fill="#fff" stroke="#d6dde5"/>
  <text x="362" y="429" font-family="Arial,sans-serif" font-size="14" font-weight="700" fill="#142033">Szenarioparameter</text>
  <g font-family="Arial,sans-serif" font-size="11" fill="#142033">
    <text x="362" y="475" font-weight="700">Regelbedarfsniveau</text><rect x="362" y="492" width="500" height="5" rx="3" fill="#d6dde5"/><rect x="362" y="492" width="375" height="5" rx="3" fill="#7a4e9d"/><text x="930" y="479" text-anchor="end" fill="#7a4e9d">105 Index</text>
    <text x="362" y="555" font-weight="700">Bedarfsgemeinschaften</text><rect x="362" y="572" width="500" height="5" rx="3" fill="#d6dde5"/><rect x="362" y="572" width="300" height="5" rx="3" fill="#7a4e9d"/><text x="930" y="559" text-anchor="end" fill="#7a4e9d">100 Index</text>
    <text x="362" y="635" font-weight="700">Unterkunfts- und Heizkosten</text><rect x="362" y="652" width="500" height="5" rx="3" fill="#d6dde5"/><rect x="362" y="652" width="300" height="5" rx="3" fill="#7a4e9d"/><text x="930" y="639" text-anchor="end" fill="#7a4e9d">100 Index</text>
    <text x="362" y="715" font-weight="700">Verwaltung und Eingliederung</text><rect x="362" y="732" width="500" height="5" rx="3" fill="#d6dde5"/><rect x="362" y="732" width="300" height="5" rx="3" fill="#7a4e9d"/><text x="930" y="719" text-anchor="end" fill="#7a4e9d">100 Index</text>
  </g>
  <rect x="1028" y="397" width="380" height="216" rx="8" fill="#fff" stroke="#d6dde5"/>
  <text x="1050" y="429" font-family="Arial,sans-serif" font-size="14" font-weight="700" fill="#142033">Begünstigte und Leistungskanäle</text>
  <rect x="1050" y="457" width="334" height="15" rx="8" fill="#edf2f5"/><rect x="1050" y="457" width="237" height="15" rx="8" fill="#7a4e9d"/><rect x="1287" y="457" width="57" height="15" fill="#7a4e9d" opacity=".65"/><rect x="1344" y="457" width="40" height="15" rx="8" fill="#7a4e9d" opacity=".4"/>
  <text x="1050" y="505" font-family="Arial,sans-serif" font-size="11" fill="#142033">Leistungsberechtigte Haushalte</text><text x="1384" y="505" text-anchor="end" font-family="Arial,sans-serif" font-size="11" font-weight="700">71 %</text>
  <text x="1050" y="535" font-family="Arial,sans-serif" font-size="11" fill="#142033">Unterkunft und Energie</text><text x="1384" y="535" text-anchor="end" font-family="Arial,sans-serif" font-size="11" font-weight="700">17 %</text>
  <text x="1050" y="565" font-family="Arial,sans-serif" font-size="11" fill="#142033">Verwaltung und Eingliederung</text><text x="1384" y="565" text-anchor="end" font-family="Arial,sans-serif" font-size="11" font-weight="700">12 %</text>
  <rect x="1028" y="631" width="380" height="224" rx="8" fill="#fff" stroke="#d6dde5"/>
  <text x="1050" y="663" font-family="Arial,sans-serif" font-size="14" font-weight="700" fill="#142033">Modellstufe</text>
  <rect x="1050" y="686" width="334" height="43" rx="5" fill="#fff" stroke="#d6dde5"/><text x="1064" y="703" font-family="Arial,sans-serif" font-size="11" font-weight="700">Statisch</text><text x="1064" y="719" font-family="Arial,sans-serif" font-size="9" fill="#5f6b78">nur direkte Haushaltswirkung</text>
  <rect x="1050" y="738" width="334" height="43" rx="5" fill="#f4edf9" stroke="#7a4e9d"/><text x="1064" y="755" font-family="Arial,sans-serif" font-size="11" font-weight="700">Mit Folgewirkung</text><text x="1064" y="771" font-family="Arial,sans-serif" font-size="9" fill="#5f6b78">moderate dokumentierte Rückwirkung</text>
  <rect x="1050" y="790" width="334" height="43" rx="5" fill="#fff" stroke="#d6dde5"/><text x="1064" y="807" font-family="Arial,sans-serif" font-size="11" font-weight="700">Langfristig</text><text x="1064" y="823" font-family="Arial,sans-serif" font-size="9" fill="#5f6b78">stärkere Rückwirkung, keine Prognose</text>
</svg>
